<svg width="16" height="16" viewBox="0 0 16 16" fill="none" xmlns="http://www.w3.org/2000/svg">
<path d="M14 8.83634C12.0937 9.60716 10.0563 10.0022 8 9.99967C5.878 9.99967 3.85333 9.58634 2 8.83634M10.6667 3.99967V2.66634C10.6667 2.31272 10.5262 1.97358 10.2761 1.72353C10.0261 1.47348 9.68696 1.33301 9.33333 1.33301H6.66667C6.31304 1.33301 5.97391 1.47348 5.72386 1.72353C5.47381 1.97358 5.33333 2.31272 5.33333 2.66634V3.99967M8 7.99967H8.00667M3.33333 13.333H12.6667C13.0203 13.333 13.3594 13.1925 13.6095 12.9425C13.8595 12.6924 14 12.3533 14 11.9997V5.33301C14 4.97939 13.8595 4.64025 13.6095 4.3902C13.3594 4.14015 13.0203 3.99967 12.6667 3.99967H3.33333C2.97971 3.99967 2.64057 4.14015 2.39052 4.3902C2.14048 4.64025 2 4.97939 2 5.33301V11.9997C2 12.3533 2.14048 12.6924 2.39052 12.9425C2.64057 13.1925 2.97971 13.333 3.33333 13.333Z" stroke="#81828D" stroke-width="1.33333" stroke-linecap="round" stroke-linejoin="round"/>
</svg>
