<svg width="16" height="16" viewBox="0 0 16 16" fill="none" xmlns="http://www.w3.org/2000/svg">
<path d="M12.6667 14V3.33333C12.6667 2.97971 12.5262 2.64057 12.2761 2.39052C12.0261 2.14048 11.687 2 11.3333 2H4.66667C4.31304 2 3.97391 2.14048 3.72386 2.39052C3.47381 2.64057 3.33333 2.97971 3.33333 3.33333V14M12.6667 14H14M12.6667 14H9.33333M3.33333 14H2M3.33333 14H6.66667M9.33333 14V10.6667C9.33333 10.4899 9.2631 10.3203 9.13807 10.1953C9.01305 10.0702 8.84348 10 8.66667 10H7.33333C7.15652 10 6.98695 10.0702 6.86193 10.1953C6.7369 10.3203 6.66667 10.4899 6.66667 10.6667V14M9.33333 14H6.66667M6 4.66667H6.66667M6 7.33333H6.66667M9.33333 4.66667H10M9.33333 7.33333H10" stroke="#81828D" stroke-width="1.33333" stroke-linecap="round" stroke-linejoin="round"/>
</svg>
