<svg preserveAspectRatio="none" width="100%" height="100%" overflow="visible" style="display: block;" viewBox="0 0 48 48" fill="none" xmlns="http://www.w3.org/2000/svg">
<g id="Icon">
<path id="Vector" d="M32 14C32 16.1217 31.1571 18.1566 29.6569 19.6569C28.1566 21.1571 26.1217 22 24 22C21.8783 22 19.8434 21.1571 18.3431 19.6569C16.8429 18.1566 16 16.1217 16 14C16 11.8783 16.8429 9.84344 18.3431 8.34315C19.8434 6.84285 21.8783 6 24 6C26.1217 6 28.1566 6.84285 29.6569 8.34315C31.1571 9.84344 32 11.8783 32 14ZM24 28C20.287 28 16.726 29.475 14.1005 32.1005C11.475 34.726 10 38.287 10 42H38C38 38.287 36.525 34.726 33.8995 32.1005C31.274 29.475 27.713 28 24 28Z" stroke="var(--stroke-0, white)" stroke-width="4" stroke-linecap="round" stroke-linejoin="round"/>
</g>
</svg>
