<svg width="240" height="240" viewBox="0 0 240 240" fill="none" xmlns="http://www.w3.org/2000/svg">
<path d="M0 54C0 24.1766 24.1766 0 54 0H186C215.823 0 240 24.1766 240 54V186C240 215.823 215.823 240 186 240H54C24.1766 240 0 215.823 0 186V54Z" fill="url(#paint0_linear_247_3711)"/>
<path d="M0 54C0 24.1766 24.1766 0 54 0H186C215.823 0 240 24.1766 240 54V186C240 215.823 215.823 240 186 240H54C24.1766 240 0 215.823 0 186V54Z" fill="url(#paint1_radial_247_3711)"/>
<path d="M52.9623 148.913C51.3098 140.739 51 134.634 51 132.151C51 131.426 51.1033 129.771 51.1033 129.254C51.1033 116.734 52.0328 103.179 53.1688 88.5903C53.6852 81.4509 53.9951 74.622 53.9951 68H90.4525C87.7672 75.8636 84.9787 89.418 83.3262 102.869C82.6033 107.422 82.1902 111.871 81.8803 116.113C81.5705 120.355 81.3639 123.563 81.3639 125.529C81.2607 126.46 81.2607 127.288 81.2607 127.908V129.047C81.2607 132.254 81.4672 134.944 81.7771 137.324C82.5 141.773 84.359 144.36 86.3213 144.36C88.4902 144.36 90.5557 141.256 90.5557 133.806V114.561C90.5557 89.625 89.0066 68 113.897 68C130.111 68 135.792 83.5203 135.792 99.6614C135.792 107.939 135.069 115.492 134.656 122.114C134.139 128.736 133.933 132.151 133.933 133.91C133.933 135.669 134.036 137.117 134.243 138.462C134.966 142.911 136.928 145.498 138.684 145.498C140.749 145.498 142.608 142.704 142.918 136.393V114.561C142.918 89.625 142.402 68 166.362 68C183.713 68 189.29 83.5203 189.29 99.6614C189.29 108.353 188.464 120.045 188.154 129.978C187.948 134.944 187.844 139.393 187.844 143.222C187.844 148.292 187.638 157.501 189.6 170.331H150.561C152.936 159.57 154.795 147.568 156.138 136.082C157.377 124.597 157.584 117.251 157.584 112.802C157.584 107.835 157.377 101.213 155.725 96.247C154.898 93.7637 153.762 92.5221 152.213 92.4186H151.593C146.739 92.4186 146.016 98.7302 146.016 111.664V140.532C145.5 164.536 136.102 172.4 126.91 172.4C125.257 172.4 123.502 172.09 121.746 171.676C109.972 168.158 105.118 155.948 103.982 140.118C103.879 137.117 103.775 134.117 103.775 131.323C103.775 127.391 103.982 123.045 104.395 118.389C104.705 113.733 105.015 110.112 105.118 107.525C105.221 104.938 105.325 103.179 105.325 102.248C105.325 96.7643 104.911 92.1082 99.8508 91.7978H99.6443C93.241 91.7978 93.5508 103.076 93.5508 111.664V136.6C93.5508 162.777 83.9459 171.365 74.341 171.365C72.6885 171.365 70.9328 171.055 69.3836 170.641C59.9852 167.847 55.1311 159.777 52.9623 148.913Z" fill="white"/>
<defs>
<linearGradient id="paint0_linear_247_3711" x1="120" y1="0" x2="120" y2="240" gradientUnits="userSpaceOnUse">
<stop stop-color="#C9D4FF"/>
<stop offset="1" stop-color="#797F99"/>
</linearGradient>
<radialGradient id="paint1_radial_247_3711" cx="0" cy="0" r="1" gradientTransform="matrix(96.3154 248.147 -216.385 27.0418 57 -7.49999)" gradientUnits="userSpaceOnUse">
<stop stop-color="#9BAAFF"/>
<stop offset="0.715286" stop-color="#C0CFFF"/>
<stop offset="1" stop-color="#DEF4FF"/>
</radialGradient>
</defs>
</svg>
